# AST/ASF file generated using VICON BodyLanguage
# -----------------------------------------------
:version 1.10
:name VICON
:units
  mass 1.0
  length 0.45
  angle deg
:documentation
   .ast/.asf automatically generated from VICON data using
   VICON BodyBuilder and BodyLanguage model FoxedUp or BRILLIANT.MOD
:root
   order TX TY TZ RX RY RZ
   axis XYZ
   position 0 0 0  
   orientation 0 0 0 
:bonedata
  begin
     id 1 
     name lhipjoint
     direction 0.693937 -0.600361 0.397515 
     length 2.37164 
     axis 0 0 0  XYZ
  end
  begin
     id 2 
     name lfemur
     direction 0.34202 -0.939693 0  
     length 6.18497  
     axis 0 0 20  XYZ
    dof rx ry rz
    limits (-160.0 20.0)
           (-70.0 70.0)
           (-60.0 70.0)
  end
  begin
     id 3 
     name ltibia
     direction 0.34202 -0.939693 0   
     length 6.91601   
     axis 0 0 20   XYZ
    dof rx
    limits (-10.0 170.0)
  end
  begin
     id 4 
     name lfoot
     direction 0.0978718 -0.2689 0.958182   
     length 1.81453   
     axis -90 7.62852e-016 20   XYZ
    dof rx rz
    limits (-45.0 90.0)
           (-70.0 20.0)
  end
  begin
     id 5 
     name ltoes
     direction 1.53569e-011 -4.21951e-011 1   
     length 0.912052   
     axis -90 7.62852e-016 20   XYZ
    dof rx
    limits (-90.0 20.0)
  end
  begin
     id 6 
     name rhipjoint
     direction -0.643996 -0.637876 0.422354   
     length 2.23216  
     axis 0 0 0  XYZ 
  end
  begin
     id 7 
     name rfemur
     direction -0.34202 -0.939693 0   
     length 6.15404   
     axis 0 0 -20   XYZ
    dof rx ry rz
    limits (-160.0 20.0)
           (-70.0 70.0)
           (-70.0 60.0)
  end
  begin
     id 8 
     name rtibia
     direction -0.34202 -0.939693 0   
     length 6.86744   
     axis 0 0 -20   XYZ
    dof rx
    limits (-10.0 170.0)
 end
 begin
     id 9 
     name rfoot
     direction -0.118701 -0.326127 0.937844   
     length 1.9243  
     axis -90 -7.62852e-016 -20   XYZ
    dof rx rz
    limits (-45.0 90.0)
           (-20.0 70.0)
  end
  begin
     id 10 
     name rtoes
     direction -1.5356e-011 -4.2181e-011 1   
     length 0.958865   
     axis -90 -7.62852e-016 -20   XYZ
    dof rx
    limits (-90.0 20.0)
  end
  begin
     id 11 
     name lowerback
     direction 0.0310826 0.968686 -0.246334   
     length 2.00021   
     axis 0 0 0   XYZ
    dof rx ry rz
    limits (-20.0 45.0)
           (-30.0 30.0)
           (-30.0 30.0)
  end
  begin
     id 12 
     name upperback
     direction -0.0152834 0.999474 -0.0286152   
     length 2.03728   
     axis 0 0 0   XYZ
    dof rx ry rz
    limits (-20.0 45.0)
           (-30.0 30.0)
           (-30.0 30.0)
  end
  begin
     id 13 
     name thorax
     direction -0.0323701 0.996236 0.0804149   
     length 2.16   
     axis 0 0 0   XYZ
    dof rx ry rz
    limits (-20.0 45.0)
           (-30.0 30.0)
           (-30.0 30.0)
  end
  begin
     id 14 
     name lowerneck
     direction 0.0307935 0.982251 0.185027   
     length 1.43558   
     axis 0 0 0   XYZ
    dof rx ry rz
    limits (-20.0 45.0)
           (-30.0 30.0)
           (-30.0 30.0)
  end
  begin
     id 15 
     name upperneck
     direction -0.0927153 0.994775 0.0427454   
     length 1.44603   
     axis 0 0 0   XYZ
    dof rx ry rz
    limits (-20.0 45.0)
           (-30.0 30.0)
           (-30.0 30.0)
  end
  begin
     id 16
     name head
     direction -0.0341265 0.999406 -0.00472033  
     length 1.45931  
     axis 0 0 0   XYZ
    dof rx ry rz
    limits (-20.0 45.0)
           (-30.0 30.0)
           (-30.0 30.0)
  end
  begin
     id 17 
     name lclavicle
     direction 0.820755 0.555306 -0.134151  
     length 2.66075  
     axis 0 0 0   XYZ
    dof ry rz
    limits (-20.0 10.0)
           (0.0 20.0)
  end
  begin
     id 18 
     name lhumerus
     direction 1 -4.48971e-011 5.24853e-027   
     length 5.0546   
     axis -180 -30 -90   XYZ
    dof rx ry rz
    limits (-60.0 90.0)
           (-90.0 90.0)
           (-90.0 90.0)
  end
  begin
     id 19
     name lradius
     direction 1 -4.48971e-011 2.76575e-028   
     length 3.39013   
     axis -180 -30 -90   XYZ
    dof rx
    limits (-10.0 170.0)
  end
  begin
     id 20
     name lwrist
     direction 1 -4.48939e-011 -2.27826e-027   
     length 1.69507   
     axis 2.17013e-015 90 90   XYZ
    dof ry
    limits (-180.0 0.0)
 end
  begin
     id 21 
     name lhand
     direction 1 -4.49009e-011 -4.55652e-027   
     length 0.572425   
     axis 2.90745e-015 90 90   XYZ
    dof rx rz
    limits (-90.0 90.0)
           (-45.0 45.0)
  end
  begin
     id 22 
     name lfingers
     direction 1 -4.48955e-011 -9.11303e-027   
     length 0.461504   
     axis 5.81489e-015 90 90   XYZ
    dof rx
    limits (0.0 90.0)
  end
  begin
     id 23
     name lthumb
     direction 0.707107 -6.34929e-011 0.707107   
     length 0.66263   
     axis -90 45 2.85299e-015   XYZ
    dof rx rz
    limits (-45.0 45.0)
           (-45.0 45.0)
  end
  begin
     id 24 
     name rclavicle
     direction -0.754477 0.632921 -0.173712   
     length 2.73081  
     axis 0 0 0   XYZ 
    dof ry rz
    limits (-10.0 20.0)
           (-20.0 0.0)
  end
  begin
     id 25 
     name rhumerus
     direction -1 -4.48969e-011 5.1496e-027  
     length 5.0701   
     axis -180 30 90   XYZ
    dof rx ry rz
    limits (-90.0 60.0)
           (-90.0 90.0)
           (-90.0 90.0)
  end
  begin
     id 26 
     name rradius
     direction -1 -4.48967e-011 -7.15624e-028   
     length 3.14957   
     axis -180 30 90   XYZ
    dof rx
    limits (-10.0 170.0)
  end
  begin
     id 27 
     name rwrist
     direction -1 -4.48938e-011 -2.27826e-027   
     length 1.57479   
     axis 2.17013e-015 -90 -90   XYZ
    dof ry
    limits (-180.0 0.0)
  end
  begin
     id 28
     name rhand
     direction -1 -4.49008e-011 -4.55652e-027   
     length 0.718191   
     axis 2.90745e-015 -90 -90   XYZ
    dof rx rz
    limits (-90.0 90.0)
           (-45.0 45.0)
  end
  begin
     id 29
     name rfingers
     direction -1 -4.48953e-011 -9.11303e-027   
     length 0.579024   
     axis 5.81489e-015 -90 -90   XYZ
    dof rx
    limits (0.0 90.0)
  end
  begin
     id 30
     name rthumb
     direction -0.707107 -6.34937e-011 0.707107   
     length 0.831366   
     axis -90 -45 -2.85299e-015   XYZ
    dof rx rz
    limits (-45.0 45.0)
           (-45.0 45.0)
  end
:hierarchy
  begin
    root lhipjoint rhipjoint lowerback
    lhipjoint lfemur
    lfemur ltibia
    ltibia lfoot
    lfoot ltoes
    rhipjoint rfemur
    rfemur rtibia
    rtibia rfoot
    rfoot rtoes
    lowerback upperback
    upperback thorax
    thorax lowerneck lclavicle rclavicle
    lowerneck upperneck
    upperneck head
    lclavicle lhumerus
    lhumerus lradius
    lradius lwrist
    lwrist lhand lthumb
    lhand lfingers
    rclavicle rhumerus
    rhumerus rradius
    rradius rwrist
    rwrist rhand rthumb
    rhand rfingers
  end

#!OML:ASF H:\Male1\Project 1\Capture day 1\Session 1\Male1.ASF
:FULLY-SPECIFIED
:DEGREES
184
root 11.7318 14.7176 0.148436 130.701 -76.9928 -151.847
lowerback 22.2409 3.04654 3.53261
upperback 17.9693 2.38744 -2.51937
thorax 7.99003 0.844757 -5.22764
lowerneck 2.36003 3.49202 3.25657
upperneck 13.4119 3.86184 3.20278
head 3.96435 2.00998 0.589766
rclavicle -2.06736e-014 -3.18055e-015
rhumerus -52.9786 23.0247 -105.74
rradius 60.1501
rwrist -33.4222
rhand -23.8967 2.61226
rfingers 7.12502
rthumb 2.57716 -27.3519
lclavicle -2.06736e-014 -3.18055e-015
lhumerus -44.7187 -7.21625 90.1704
lradius 60.15
lwrist 15.1084
lhand -51.4315 3.22545
lfingers 7.12502
lthumb -23.9624 31.75
rfemur -16.3503 -21.7378 13.3409
rtibia 57.0273
rfoot -0.00332577 -29.8841
rtoes 6.26234
lfemur -38.827 26.1362 -9.70343
ltibia 112.392
lfoot 6.19835 4.77705
ltoes 0.762889
185
root 11.7404 14.7024 0.157841 131.42 -76.7424 -152.85
lowerback 22.1939 3.25616 3.11038
upperback 17.9254 2.59708 -2.44385
thorax 7.94239 0.897987 -4.93283
lowerneck 2.3197 3.43288 3.33762
upperneck 12.7897 3.88034 2.78723
head 3.75985 2.01155 0.429941
rclavicle -5.725e-014 3.18055e-014
rhumerus -52.9114 23.4076 -107.372
rradius 59.1433
rwrist -34.8615
rhand -24.8936 3.00321
rfingers 7.12502
rthumb 1.61432 -26.9704
lclavicle -5.725e-014 3.18055e-014
lhumerus -44.9428 -7.24114 90.4455
lradius 60.1855
lwrist 14.937
lhand -51.9976 2.22317
lfingers 7.12502
lthumb -24.5052 30.6753
rfemur -16.279 -21.4492 13.3506
rtibia 57.1285
rfoot -0.0457033 -29.956
rtoes 5.92145
lfemur -38.4015 26.412 -9.45331
ltibia 111.884
lfoot 7.19131 4.93641
ltoes 2.22193
186
root 11.752 14.6858 0.165084 132.288 -76.471 -153.991
lowerback 22.1575 3.48811 2.59711
upperback 17.8566 2.82476 -2.33495
thorax 7.84781 0.94856 -4.55308
lowerneck 2.31864 3.35471 3.3963
upperneck 12.1632 3.86724 2.38816
head 3.54801 1.99679 0.279655
rclavicle -3.81667e-014 3.33958e-014
rhumerus -52.8142 23.7282 -108.824
rradius 58.2146
rwrist -36.3452
rhand -26.4453 3.51174
rfingers 7.12502
rthumb 0.11566 -26.468
lclavicle -3.81667e-014 3.33958e-014
lhumerus -45.1513 -7.31644 90.8094
lradius 60.1187
lwrist 14.7898
lhand -52.5155 1.37316
lfingers 7.12502
lthumb -25.0016 29.7572
rfemur -16.2771 -21.1373 13.3764
rtibia 57.2664
rfoot -0.119682 -30.0812
rtoes 5.72182
lfemur -37.9057 26.6817 -9.21212
ltibia 111.324
lfoot 8.00458 5.05228
ltoes 3.41536
187
root 11.7673 14.6689 0.1701 133.209 -76.1644 -155.191
lowerback 22.1514 3.73934 2.0045
upperback 17.774 3.06472 -2.18738
thorax 7.70984 0.994219 -4.09036
lowerneck 2.32799 3.26413 3.42728
upperneck 11.548 3.82933 2.0137
head 3.33923 1.96967 0.143366
rclavicle -2.06736e-014 -6.36111e-015
rhumerus -52.6712 23.9483 -110.051
rradius 57.3297
rwrist -37.8625
rhand -28.5839 4.35109
rfingers 7.12502
rthumb -1.94988 -25.6197
lclavicle -2.06736e-014 -6.36111e-015
lhumerus -45.3738 -7.39619 91.2437
lradius 60.0175
lwrist 14.5959
lhand -52.9558 0.73797
lfingers 7.12502
lthumb -25.4234 29.0626
rfemur -16.3271 -20.7749 13.4261
rtibia 57.4503
rfoot -0.277949 -30.2429
rtoes 5.85676
lfemur -37.336 27.0116 -8.92102
ltibia 110.804
lfoot 8.57893 5.07897
ltoes 4.36231
188
root 11.7861 14.6529 0.173094 134.047 -75.8126 -156.333
lowerback 22.1742 4.00104 1.36849
upperback 17.701 3.30631 -2.00224
thorax 7.55942 1.03317 -3.56593
lowerneck 2.28764 3.17749 3.45875
upperneck 10.965 3.7869 1.65552
head 3.15267 1.94191 0.0151343
rclavicle 3.18055e-014 -3.65764e-014
rhumerus -52.441 24.0138 -110.998
rradius 56.4528
rwrist -39.3629
rhand -31.2042 5.69309
rfingers 7.12502
rthumb -4.4803 -24.2395
lclavicle 3.18055e-014 -3.65764e-014
lhumerus -45.6025 -7.45489 91.7121
lradius 59.9392
lwrist 14.319
lhand -53.2904 0.299793
lfingers 7.12502
lthumb -25.7439 28.5784
rfemur -16.3957 -20.3624 13.5081
rtibia 57.6781
rfoot -0.490943 -30.402
rtoes 6.27097
lfemur -36.6871 27.4393 -8.51754
ltibia 110.398
lfoot 8.86837 4.95012
ltoes 4.97757
189
root 11.8076 14.6392 0.174842 134.723 -75.4019 -157.345
lowerback 22.22 4.26955 0.741328
upperback 17.6439 3.55188 -1.78951
thorax 7.41238 1.07291 -3.02072
lowerneck 2.18745 3.08935 3.51423
upperneck 10.4279 3.73083 1.32722
head 2.99445 1.91005 -0.105012
rclavicle 3.73715e-014 -3.97569e-014
rhumerus -52.1052 23.8278 -111.62
rradius 55.5826
rwrist -40.7569
rhand -34.0991 7.53397
rfingers 7.12502
rthumb -7.27527 -22.321
lclavicle 3.73715e-014 -3.97569e-014
lhumerus -45.829 -7.51522 92.1842
lradius 59.9069
lwrist 13.9609
lhand -53.4923 -0.0811921
lfingers 7.12502
lthumb -25.9373 28.1693
rfemur -16.462 -19.9035 13.6283
rtibia 57.9457
rfoot -0.699223 -30.5203
rtoes 6.88464
lfemur -35.9588 27.9703 -7.9585
ltibia 110.139
lfoot 8.88417 4.62296
ltoes 5.25954
190
root 11.8308 14.6281 0.175972 135.243 -74.9594 -158.232
lowerback 22.2749 4.53717 0.12802
upperback 17.6034 3.79337 -1.56406
thorax 7.27722 1.11114 -2.47208
lowerneck 2.03705 2.99819 3.60426
upperneck 9.94107 3.65912 1.03714
head 2.86361 1.87312 -0.216862
rclavicle 1.03368e-014 1.27222e-014
rhumerus -51.6732 23.3479 -111.906
rradius 54.7442
rwrist -41.9523
rhand -37.0191 9.94498
rfingers 7.12502
rthumb -10.0931 -19.793
lclavicle 1.03368e-014 1.27222e-014
lhumerus -46.0483 -7.59878 92.6516
lradius 59.9249
lwrist 13.5673
lhand -53.61 -0.318684
lfingers 7.12502
lthumb -26.0499 27.9152
rfemur -16.5208 -19.4217 13.7523
rtibia 58.2542
rfoot -0.836599 -30.5783
rtoes 7.6423
lfemur -35.1749 28.547 -7.28428
ltibia 110.018
lfoot 8.69667 4.10872
ltoes 5.16888
191
root 11.855 14.6191 0.176898 135.71 -74.5255 -159.085
lowerback 22.317 4.79711 -0.506582
upperback 17.578 4.01851 -1.34527
thorax 7.16123 1.13963 -1.91847
lowerneck 1.84244 2.91452 3.74512
upperneck 9.50837 3.58758 0.771011
head 2.76071 1.83863 -0.32795
rclavicle -3.97569e-015 -1.59028e-015
rhumerus -51.1693 22.6201 -111.884
rradius 53.9828
rwrist -42.8788
rhand -39.7018 12.7469
rfingers 7.12502
rthumb -12.6803 -16.8482
lclavicle -3.97569e-015 -1.59028e-015
lhumerus -46.2622 -7.71594 93.1196
lradius 59.9906
lwrist 13.2156
lhand -53.7179 -0.434286
lfingers 7.12502
lthumb -26.1533 27.7844
rfemur -16.5909 -18.945 13.8258
rtibia 58.6146
rfoot -0.806996 -30.5685
rtoes 8.39566
lfemur -34.3677 29.0986 -6.58694
ltibia 109.997
lfoot 8.39639 3.46191
ltoes 4.6614
192
root 11.8798 14.6112 0.178256 136.113 -74.1001 -159.89
lowerback 22.349 5.03883 -1.14447
upperback 17.5589 4.21812 -1.14456
thorax 7.05542 1.15662 -1.38056
lowerneck 1.62867 2.84982 3.95454
upperneck 9.12522 3.53337 0.517403
head 2.68028 1.8148 -0.445387
rclavicle 4.53229e-014 -1.59028e-014
rhumerus -50.6304 21.7233 -111.621
rradius 53.3453
rwrist -43.5033
rhand -41.9625 15.6332
rfingers 7.12502
rthumb -14.859 -13.8139
lclavicle 4.53229e-014 -1.59028e-014
lhumerus -46.4995 -7.87229 93.5947
lradius 60.1068
lwrist 12.9601
lhand -53.9012 -0.355624
lfingers 7.12502
lthumb -26.3287 27.8369
rfemur -16.7003 -18.484 13.857
rtibia 59.0446
rfoot -0.562734 -30.5212
rtoes 9.03015
lfemur -33.569 29.5821 -5.8951
ltibia 110.031
lfoot 8.08793 2.78619
ltoes 3.94356
193
root 11.905 14.6035 0.181012 136.556 -73.6803 -160.753
lowerback 22.373 5.25564 -1.79415
upperback 17.5435 4.38201 -0.977891
thorax 6.95752 1.15681 -0.868939
lowerneck 1.42837 2.81746 4.20172
upperneck 8.7772 3.51628 0.279381
head 2.61103 1.81005 -0.563366
rclavicle -2.54444e-014 1.43125e-014
rhumerus -50.0949 20.7937 -111.214
rradius 52.8457
rwrist -43.8725
rhand -43.7605 18.4029
rfingers 7.12502
rthumb -16.5906 -10.9079
lclavicle -2.54444e-014 1.43125e-014
lhumerus -46.781 -8.01565 94.0703
lradius 60.2788
lwrist 12.8215
lhand -54.2082 0.0209959
lfingers 7.12502
lthumb -26.6226 28.1693
rfemur -16.8842 -18.0246 13.8298
rtibia 59.5705
rfoot -0.102952 -30.4784
rtoes 9.52884
lfemur -32.7838 29.9893 -5.26354
ltibia 110.063
lfoot 7.86924 2.21801
ltoes 3.48211
194
root 11.9308 14.5952 0.185737 137.229 -73.2731 -161.886
lowerback 22.41 5.45993 -2.47638
upperback 17.5296 4.52071 -0.873476
thorax 6.85733 1.14466 -0.405079
lowerneck 1.26521 2.81832 4.45792
upperneck 8.45298 3.53806 0.0768962
head 2.54383 1.82467 -0.671053
rclavicle -1.35174e-014 1.74931e-014
rhumerus -49.5602 19.9293 -110.761
rradius 52.4538
rwrist -44.0994
rhand -45.1974 20.8696
rfingers 7.12502
rthumb -17.9736 -8.31985
lclavicle -1.35174e-014 1.74931e-014
lhumerus -47.1096 -8.12835 94.5179
lradius 60.492
lwrist 12.8111
lhand -54.6252 0.677013
lfingers 7.12502
lthumb -27.0216 28.7641
rfemur -17.1661 -17.5393 13.6931
rtibia 60.2175
rfoot 0.528422 -30.4674
rtoes 9.9898
lfemur -31.989 30.3435 -4.76905
ltibia 110.049
lfoot 7.7237 1.83517
ltoes 3.38471
195
root 11.9579 14.5864 0.193053 138.097 -72.8344 -163.264
lowerback 22.4899 5.65859 -3.13919
upperback 17.5089 4.64876 -0.830563
thorax 6.73562 1.13279 -0.0205236
lowerneck 1.13876 2.84815 4.69656
upperneck 8.16015 3.59311 -0.0781968
head 2.48032 1.85553 -0.760197
rclavicle 2.14687e-014 1.27222e-014
rhumerus -49.001 19.1826 -110.326
rradius 52.0954
rwrist -44.2985
rhand -46.4238 23.1899
rfingers 7.12502
rthumb -19.1532 -5.88696
lclavicle 2.14687e-014 1.27222e-014
lhumerus -47.4813 -8.20252 94.9152
lradius 60.7226
lwrist 12.926
lhand -55.1064 1.45847
lfingers 7.12502
lthumb -27.4819 29.4733
rfemur -17.5628 -16.9852 13.4884
rtibia 61.0073
rfoot 1.12995 -30.5229
rtoes 10.832
lfemur -31.1659 30.7078 -4.35921
ltibia 109.98
lfoot 7.62662 1.60077
ltoes 3.60253
196
root 11.9865 14.5765 0.203481 139.045 -72.3195 -164.778
lowerback 22.6278 5.85301 -3.71957
upperback 17.4844 4.77477 -0.834075
thorax 6.59209 1.13027 0.264227
lowerneck 1.02375 2.90202 4.89234
upperneck 7.91641 3.67478 -0.188348
head 2.43013 1.89902 -0.826984
rclavicle -3.18055e-014 2.22639e-014
rhumerus -48.38 18.5702 -109.926
rradius 51.6767
rwrist -44.5057
rhand -47.4836 25.5489
rfingers 7.12502
rthumb -20.1721 -3.4238
lclavicle -3.18055e-014 2.22639e-014
lhumerus -47.869 -8.22576 95.2475
lradius 60.9532
lwrist 13.1541
lhand -55.6029 2.20753
lfingers 7.12502
lthumb -27.9567 30.1459
rfemur -18.0832 -16.3428 13.2811
rtibia 61.9476
rfoot 1.69911 -30.6489
rtoes 11.8867
lfemur -30.298 31.1248 -3.94945
ltibia 109.867
lfoot 7.55383 1.4332
ltoes 3.96299
197
root 12.016 14.5659 0.217645 140.082 -71.7193 -166.431
lowerback 22.8225 6.04587 -4.20799
upperback 17.4523 4.9035 -0.877442
thorax 6.42277 1.14039 0.450221
lowerneck 0.896587 2.97892 5.03793
upperneck 7.7404 3.78269 -0.278135
head 2.40399 1.95469 -0.877627
rclavicle -9.54166e-015 1.59028e-014
rhumerus -47.6927 18.084 -109.562
rradius 51.1344
rwrist -44.6645
rhand -48.3874 28.0106
rfingers 7.12502
rthumb -21.0406 -0.867934
lclavicle -9.54166e-015 1.59028e-014
lhumerus -48.2519 -8.18942 95.5132
lradius 61.1654
lwrist 13.492
lhand -56.0477 2.63999
lfingers 7.12502
lthumb -28.3818 30.5084
rfemur -18.7392 -15.6181 13.0769
rtibia 63.0461
rfoot 2.22953 -30.7771
rtoes 13.0941
lfemur -29.3706 31.6022 -3.53166
ltibia 109.717
lfoot 7.48426 1.27648
ltoes 4.32117
